<svg width="17" height="17" viewBox="0 0 17 17" fill="none" xmlns="http://www.w3.org/2000/svg">
<g clip-path="url(#clip0_4450_1625)">
<path d="M17 1.94796C17 0.873398 16.1266 0 15.052 0H1.94796C0.873398 0 0 0.873398 0 1.94796V15.052C0 16.1266 0.873398 17 1.94796 17H15.052C16.1266 17 17 16.1266 17 15.052V1.94796Z" fill="#242B3F"/>
<path d="M12.8081 5.69716C13.085 5.97407 13.085 6.42166 12.8081 6.6987L8.20387 11.3028C8.06573 11.4409 7.88441 11.5104 7.70309 11.5104C7.52177 11.5104 7.34045 11.4409 7.20232 11.3028L4.90028 9.00074C4.62325 8.72383 4.62325 8.27611 4.90028 7.9992C5.17719 7.72216 5.62479 7.72216 5.90182 7.9992L7.70309 9.80047L11.8065 5.69716C12.0834 5.42012 12.531 5.42012 12.8081 5.69716Z" fill="white"/>
</g>
<defs>
<clipPath id="clip0_4450_1625">
<rect width="17" height="17" fill="white"/>
</clipPath>
</defs>
</svg>
